<svg xmlns="http://www.w3.org/2000/svg" viewBox="0 0 640 540" fill="none" role="img" aria-labelledby="title desc">
  <title id="title">Grydin grocery cart</title>
  <desc id="desc">A Grydin grocery app phone, full green shopping cart, branded paper bag, and freshness card.</desc>
  <defs>
    <linearGradient id="basket" x1="224" y1="228" x2="498" y2="391" gradientUnits="userSpaceOnUse"><stop stop-color="#168455"/><stop offset=".48" stop-color="#075337"/><stop offset="1" stop-color="#032D20"/></linearGradient>
    <linearGradient id="rail" x1="188" y1="227" x2="518" y2="397" gradientUnits="userSpaceOnUse"><stop stop-color="#8BF0B6"/><stop offset=".28" stop-color="#31B978"/><stop offset="1" stop-color="#087047"/></linearGradient>
    <linearGradient id="tomato" x1=".3" y1=".1" x2=".8" y2="1"><stop stop-color="#FF7454"/><stop offset="1" stop-color="#CE3024"/></linearGradient>
    <linearGradient id="leaf" x1="0" y1="0" x2="1" y2="1"><stop stop-color="#9DEB62"/><stop offset=".52" stop-color="#2A9B4A"/><stop offset="1" stop-color="#12633A"/></linearGradient>
    <linearGradient id="mintCard" x1="0" y1="0" x2="1" y2="1"><stop stop-color="#19A66C"/><stop offset="1" stop-color="#05623F"/></linearGradient>
    <filter id="shadow" x="-30%" y="-30%" width="160%" height="180%" color-interpolation-filters="sRGB"><feGaussianBlur in="SourceAlpha" stdDeviation="11"/><feOffset dy="13"/><feComponentTransfer><feFuncA type="linear" slope=".28"/></feComponentTransfer><feMerge><feMergeNode/><feMergeNode in="SourceGraphic"/></feMerge></filter>
    <filter id="softShadow" x="-30%" y="-30%" width="160%" height="180%" color-interpolation-filters="sRGB"><feGaussianBlur in="SourceAlpha" stdDeviation="7"/><feOffset dy="8"/><feComponentTransfer><feFuncA type="linear" slope=".2"/></feComponentTransfer><feMerge><feMergeNode/><feMergeNode in="SourceGraphic"/></feMerge></filter>
    <clipPath id="basketClip"><path d="m215 226 300 7-39 155c-3 12-13 20-26 20H276c-13 0-23-8-27-20l-34-162Z"/></clipPath>
  </defs>
  <ellipse cx="373" cy="462" rx="205" ry="22" fill="#001D13" opacity=".43"/>

  <g filter="url(#shadow)" transform="rotate(-7 170 205)">
    <rect x="78" y="52" width="184" height="306" rx="29" fill="#101A14" stroke="#829589" stroke-width="4"/>
    <rect x="86" y="60" width="168" height="290" rx="22" fill="#F8FAF3"/>
    <rect x="145" y="66" width="48" height="5" rx="2.5" fill="#26362D"/>
    <text x="101" y="86" fill="#364B3E" font-family="Arial,sans-serif" font-size="9" font-weight="700">9:41</text>
    <text x="101" y="109" fill="#164A32" font-family="Arial,sans-serif" font-size="15" font-weight="700">Grydin Mart</text>
    <path d="m228 100 3-8 3 8 8 3-8 3-3 8-3-8-8-3 8-3Z" fill="#2C6E2F"/>
    <rect x="99" y="121" width="143" height="27" rx="13.5" fill="#E9EEE7"/>
    <circle cx="112" cy="134" r="4" stroke="#397860" stroke-width="1.5"/><path d="m115 137 4 4" stroke="#397860" stroke-width="1.5" stroke-linecap="round"/>
    <text x="124" y="138" fill="#87958B" font-family="Arial,sans-serif" font-size="9">Search groceries...</text>
    <text x="101" y="170" fill="#173F2D" font-family="Arial,sans-serif" font-size="10" font-weight="700">Shop by category</text>
    <path d="M99 181h143M99 214h143M99 247h143M99 280h143M99 313h143" stroke="#E3E9E1"/>
    <circle cx="112" cy="198" r="7" fill="url(#tomato)"/><path d="m111 191 2 3 4-1-3 3" stroke="#367A43" stroke-width="1.4" stroke-linecap="round"/>
    <text x="128" y="202" fill="#1D5037" font-family="Arial,sans-serif" font-size="10" font-weight="700">Fresh Produce</text><path d="m232 195 4 3-4 4" stroke="#6E8C78" stroke-width="1.4"/>
    <rect x="106" y="222" width="11" height="16" rx="3" fill="#B8E7ED"/><path d="M109 219h6v4h-6z" fill="#4D99B2"/><text x="128" y="235" fill="#486354" font-family="Arial,sans-serif" font-size="10">Dairy &amp; Eggs</text>
    <path d="M105 263c4-9 11-9 15-2l-9 8-6-6Z" fill="#E5A43D"/><text x="128" y="268" fill="#486354" font-family="Arial,sans-serif" font-size="10">Bakery</text>
    <rect x="108" y="286" width="8" height="15" rx="3" fill="#56B898"/><text x="128" y="301" fill="#486354" font-family="Arial,sans-serif" font-size="10">Pantry</text>
    <circle cx="113" cy="329" r="7" fill="#F5C342"/><path d="M110 329h6m-3-3v6" stroke="#fff" stroke-width="1.3" stroke-linecap="round"/><text x="128" y="333" fill="#486354" font-family="Arial,sans-serif" font-size="9">Snacks &amp; Drinks</text>
  </g>

  <g filter="url(#softShadow)" transform="rotate(9 527 101)">
    <rect x="477" y="47" width="93" height="89" rx="21" fill="url(#mintCard)"/>
    <path d="M495 76h42l-5 24h-31l-6-31h-7m13 39a3 3 0 1 0 0 .1m26-.1a3 3 0 1 0 0 .1" stroke="#F1FFF5" stroke-width="4" stroke-linecap="round" stroke-linejoin="round"/>
  </g>
  <path d="m583 58 18-5m-15 18 20 1m-24 12 14 9" stroke="#F3C648" stroke-width="4" stroke-linecap="round"/>

  <g filter="url(#shadow)">
    <!-- produce rising above the basket -->
    <path d="M273 224c-31-35-19-68 8-80 1 31 15 47 22 66 8-44 34-75 67-79-7 36-18 62-48 91 43-41 79-50 106-28-24 33-59 51-105 54l-50-9Z" fill="url(#leaf)"/>
    <path d="M326 219c-14-46 2-79 35-92 9 35 2 57-14 89 26-36 52-48 78-33-15 31-38 46-83 51l-16-15Z" fill="#53B94E"/>
    <path d="M383 218c-8-37 10-63 37-70 7 29 0 49-15 69 23-24 46-29 66-13-14 25-35 34-72 32l-16-18Z" fill="#218044"/>
    <path d="M347 220c-37-37-27-70-3-84 8 34 22 46 27 70 8-29 27-46 51-44-7 29-23 48-52 65l-23-7Z" fill="#8ACB50"/>

    <!-- milk carton and loaf -->
    <path d="m418 166 10-35 20-13 31 7 9 35-9 68-66-4 5-58Z" fill="#F5F4E7" stroke="#D3DACD" stroke-width="3"/>
    <path d="m428 132 21-14 31 7-13 17-38-3Z" fill="#79C9E5"/><path d="M448 122v19" stroke="#D7F6FF" stroke-width="3"/>
    <path d="M343 210c-1-22 3-46 16-63 8-10 22-4 28 8l26 57-59 23-11-25Z" fill="#E7A647"/>
    <path d="m364 166 10 4m-17 16 17 5m-6-32 10 5" stroke="#B96B2B" stroke-width="4" stroke-linecap="round"/>

    <!-- tomatoes, pepper and orange -->
    <circle cx="303" cy="220" r="27" fill="url(#tomato)"/><path d="m302 194 4 10 10-5-5 11 10 5-13 1-5 10-4-11-11 2 8-8-5-9 10 5 5-11Z" fill="#25753F"/>
    <circle cx="372" cy="219" r="25" fill="#F14B35"/><path d="m371 196 4 9 9-4-5 9 8 5-11 1-4 9-4-10-10 1 7-7-4-8 9 4 5-9Z" fill="#2E7B3E"/>
    <path d="M402 211c-7-23 5-35 23-32 15 2 19 14 13 32-6 18-29 20-36 0Z" fill="#FFC52E"/><path d="M421 179c1-10 10-14 16-10-1 7-7 12-16 10Z" fill="#368347"/>
    <path d="M459 218c-4-19 6-29 19-25 13 4 12 19 4 31-8 12-20 9-23-6Z" fill="#F2762D"/>

    <!-- basket body and woven grid -->
    <path d="m215 226 300 7-39 155c-3 12-13 20-26 20H276c-13 0-23-8-27-20l-34-162Z" fill="url(#basket)" stroke="#064A32" stroke-width="8" stroke-linejoin="round"/>
    <g clip-path="url(#basketClip)" stroke="url(#rail)" stroke-width="8" opacity=".95">
      <path d="m246 238 31 154m36-153 22 155m43-154 13 154m50-153-1 152m48-151-21 146"/>
      <path d="m221 274 283 7m-273 35 263 7m-252 35 243 6m-228 32 215 4"/>
    </g>
    <path d="m199 222 323 8" stroke="url(#rail)" stroke-width="13" stroke-linecap="round"/>
    <path d="m201 228 36 166c3 15 17 26 33 26h178c16 0 30-11 34-27l41-158" stroke="#62D899" stroke-width="5" stroke-linecap="round" opacity=".8"/>

    <!-- chassis and wheels -->
    <path d="m284 416 10 30c3 9 11 14 21 14h121c11 0 18-6 21-16l9-27" stroke="url(#rail)" stroke-width="12" stroke-linecap="round" stroke-linejoin="round"/>
    <path d="m465 444 50-3 28-24" stroke="url(#rail)" stroke-width="12" stroke-linecap="round" stroke-linejoin="round"/>
    <circle cx="323" cy="463" r="22" fill="#12382A" stroke="#62D899" stroke-width="8"/><circle cx="323" cy="463" r="7" fill="#D9F5E2"/>
    <circle cx="445" cy="463" r="22" fill="#12382A" stroke="#62D899" stroke-width="8"/><circle cx="445" cy="463" r="7" fill="#D9F5E2"/>
  </g>

  <g filter="url(#softShadow)" transform="rotate(-4 194 418)">
    <rect x="143" y="380" width="55" height="76" rx="8" fill="#EFF5F0" stroke="#C7D8CA" stroke-width="2"/>
    <rect x="149" y="387" width="43" height="27" rx="4" fill="#7FC8E8"/>
    <path d="M151 421h39v27h-39z" fill="#F9FBF6"/><text x="155" y="438" fill="#326D85" font-family="Arial,sans-serif" font-size="8" font-weight="700">DAILY</text>
    <path d="M207 393h25l7 11-4 49h-29l-4-48 5-12Z" fill="#F6F0D8" stroke="#C8B98A" stroke-width="2"/>
    <path d="M211 392v-7h15v8" stroke="#56A77B" stroke-width="5" stroke-linecap="round"/><rect x="207" y="414" width="29" height="15" rx="4" fill="#56A77B"/>
    <rect x="239" y="417" width="25" height="33" rx="5" fill="#DFE7D8" stroke="#A7B99F" stroke-width="2"/>
    <path d="M243 413h17v7h-17z" fill="#3F7651"/><rect x="243" y="427" width="17" height="11" rx="3" fill="#F4C04C"/>
  </g>

  <g opacity=".95" transform="rotate(-8 574 183)">
    <text x="535" y="167" fill="#73E8AD" font-family="Arial,sans-serif" font-size="15" font-style="italic" font-weight="700">Groceries</text>
    <text x="542" y="186" fill="#73E8AD" font-family="Arial,sans-serif" font-size="15" font-style="italic" font-weight="700">made easy</text>
    <path d="m557 197-10 11m0 0 12-1m-12 1 3 11" stroke="#73E8AD" stroke-width="2.5" stroke-linecap="round" stroke-linejoin="round"/>
  </g>
  <g filter="url(#softShadow)" transform="rotate(8 568 286)">
    <rect x="521" y="252" width="93" height="72" rx="15" fill="#0A432F" stroke="#68DCA0" stroke-opacity=".7" stroke-width="2"/>
    <circle cx="545" cy="276" r="10" fill="#47B67A"/><path d="m540 276 4 4 7-8" stroke="#F7FFF8" stroke-width="2" stroke-linecap="round" stroke-linejoin="round"/>
    <text x="560" y="277" fill="#E7F7EA" font-family="Arial,sans-serif" font-size="10" font-weight="700">Freshness</text>
    <text x="540" y="296" fill="#E7F7EA" font-family="Arial,sans-serif" font-size="10" font-weight="700">Guaranteed</text>
  </g>
  <g filter="url(#softShadow)" transform="rotate(8 573 401)">
    <path d="m525 349 99-9 7 111-99 10-7-112Z" fill="#C9955A"/>
    <path d="m525 349 12 9 94-9" fill="#DCAE72"/>
    <path d="M548 350v-19c0-22 42-25 43-3v17" stroke="#E7C597" stroke-width="7" stroke-linecap="round"/>
    <path d="m549 389 23-2 5 10-23 2-5-10Z" fill="#174B35"/>
    <path d="M557 386v-7l5 3 5-5v8" stroke="#F5EBDD" stroke-width="2" stroke-linecap="round" stroke-linejoin="round"/>
    <text x="548" y="413" fill="#174B35" font-family="Arial,sans-serif" font-size="11" font-weight="700">Grydin</text>
    <text x="549" y="426" fill="#174B35" font-family="Arial,sans-serif" font-size="9" font-weight="700" letter-spacing="2">MART</text>
    <path d="M539 451c10-16 17-24 28-30m-20 31c4-11 4-17 2-24" stroke="#4E8E49" stroke-width="4" stroke-linecap="round"/>
  </g>
</svg>
